<mxfile host="app.diagrams.net" modified="2023-05-16T12:00:36.727Z" agent="5.0 (Windows)" etag="CysOmQK2CJZvR-k8NLMC" version="20.4.0" type="github">
  <diagram id="1qjW0R6THxbMPnX_bfFr" name="Sivu-1">
    <mxGraphModel dx="1237" dy="678" grid="1" gridSize="10" guides="1" tooltips="1" connect="1" arrows="1" fold="1" page="1" pageScale="1" pageWidth="827" pageHeight="1169" math="0" shadow="0">
      <root>
        <mxCell id="0" />
        <mxCell id="1" parent="0" />
        <mxCell id="FqvH9eAlEjdmubDwuPOy-8" value="" style="rounded=0;whiteSpace=wrap;html=1;strokeWidth=2;fillColor=#A1A1A1;strokeColor=none;" vertex="1" parent="1">
          <mxGeometry x="20" y="80" width="740" height="360" as="geometry" />
        </mxCell>
        <mxCell id="FqvH9eAlEjdmubDwuPOy-5" value="" style="rounded=0;whiteSpace=wrap;html=1;fillColor=#FFFFFF;strokeWidth=2;strokeColor=#080808;" vertex="1" parent="1">
          <mxGeometry x="40" y="100" width="160" height="240" as="geometry" />
        </mxCell>
        <mxCell id="FqvH9eAlEjdmubDwuPOy-4" value="" style="rounded=0;whiteSpace=wrap;html=1;strokeColor=none;fillColor=#FFFFFF;" vertex="1" parent="1">
          <mxGeometry x="190" y="160" width="570" height="120" as="geometry" />
        </mxCell>
        <mxCell id="FqvH9eAlEjdmubDwuPOy-1" value="" style="endArrow=none;html=1;rounded=0;strokeWidth=2;" edge="1" parent="1">
          <mxGeometry width="50" height="50" relative="1" as="geometry">
            <mxPoint x="200" y="160" as="sourcePoint" />
            <mxPoint x="760" y="160" as="targetPoint" />
          </mxGeometry>
        </mxCell>
        <mxCell id="FqvH9eAlEjdmubDwuPOy-2" value="" style="endArrow=none;html=1;rounded=0;strokeWidth=2;" edge="1" parent="1">
          <mxGeometry width="50" height="50" relative="1" as="geometry">
            <mxPoint x="200" y="280" as="sourcePoint" />
            <mxPoint x="760" y="280" as="targetPoint" />
          </mxGeometry>
        </mxCell>
        <mxCell id="FqvH9eAlEjdmubDwuPOy-9" value="&lt;font style=&quot;font-size: 24px;&quot;&gt;Primary noise&lt;/font&gt;" style="ellipse;shape=cloud;whiteSpace=wrap;html=1;strokeColor=#080808;strokeWidth=2;fillColor=#FFFFFF;" vertex="1" parent="1">
          <mxGeometry x="50" y="150" width="140" height="120" as="geometry" />
        </mxCell>
        <mxCell id="FqvH9eAlEjdmubDwuPOy-10" value="" style="ellipse;whiteSpace=wrap;html=1;aspect=fixed;strokeColor=#080808;strokeWidth=1;fontSize=24;fillColor=#FFFFFF;" vertex="1" parent="1">
          <mxGeometry x="280" y="220" width="20" height="20" as="geometry" />
        </mxCell>
        <mxCell id="FqvH9eAlEjdmubDwuPOy-11" value="" style="ellipse;whiteSpace=wrap;html=1;aspect=fixed;strokeColor=#080808;strokeWidth=1;fontSize=24;fillColor=#FFFFFF;" vertex="1" parent="1">
          <mxGeometry x="680" y="220" width="20" height="20" as="geometry" />
        </mxCell>
        <mxCell id="FqvH9eAlEjdmubDwuPOy-16" value="" style="shape=or;whiteSpace=wrap;html=1;strokeColor=#080808;strokeWidth=1;fontSize=24;fillColor=#FFFFFF;rotation=-90;" vertex="1" parent="1">
          <mxGeometry x="457.5" y="243" width="5" height="10" as="geometry" />
        </mxCell>
        <mxCell id="FqvH9eAlEjdmubDwuPOy-12" value="" style="shape=trapezoid;perimeter=trapezoidPerimeter;whiteSpace=wrap;html=1;fixedSize=1;strokeColor=#080808;strokeWidth=1;fontSize=24;fillColor=#FFFFFF;rotation=-180;size=15;" vertex="1" parent="1">
          <mxGeometry x="435" y="250" width="50" height="20" as="geometry" />
        </mxCell>
        <mxCell id="FqvH9eAlEjdmubDwuPOy-14" value="" style="rounded=0;whiteSpace=wrap;html=1;strokeColor=#080808;strokeWidth=1;fontSize=24;fillColor=#FFFFFF;" vertex="1" parent="1">
          <mxGeometry x="445" y="270" width="30" height="10" as="geometry" />
        </mxCell>
        <mxCell id="FqvH9eAlEjdmubDwuPOy-19" value="Controller" style="rounded=0;whiteSpace=wrap;html=1;strokeColor=#080808;strokeWidth=1;fontSize=24;fillColor=#FFFFFF;" vertex="1" parent="1">
          <mxGeometry x="325" y="340" width="270" height="40" as="geometry" />
        </mxCell>
      </root>
    </mxGraphModel>
  </diagram>
</mxfile>
